<?xml version="1.0" encoding="utf-8"?>
<!-- Generator: Adobe Illustrator 23.0.3, SVG Export Plug-In . SVG Version: 6.00 Build 0)  -->
<svg version="1.1" id="Layer_1" xmlns="http://www.w3.org/2000/svg" xmlns:xlink="http://www.w3.org/1999/xlink" x="0px" y="0px"
	 viewBox="0 0 64 64" style="enable-background:new 0 0 64 64;" xml:space="preserve">
<style type="text/css">
	.st0{fill:#003358;}
	.st1{fill:#00A1AF;}
</style>
<path class="st0" d="M56.16,18.62c-13.02-1.16-21.33,4.4-23.93,6.47c-2.58-2.06-10.9-7.64-23.94-6.48
	c-0.71,0.06-1.25,0.66-1.25,1.37v33.9c0,0.39,0.16,0.75,0.45,1.01c0.28,0.26,0.66,0.39,1.05,0.35c14.32-1.27,22.72,5.56,22.8,5.62
	c0,0,0,0,0,0c0.13,0.11,0.27,0.19,0.42,0.24c0,0,0,0,0,0c0.15,0.05,0.3,0.09,0.46,0.09c0.04,0,0.08-0.02,0.12-0.02
	c0.08-0.01,0.16-0.02,0.24-0.04c0.06-0.02,0.11-0.03,0.17-0.06c0.11-0.05,0.22-0.1,0.31-0.18c0.01-0.01,0.03-0.01,0.04-0.02
	c0.08-0.07,8.41-6.9,22.8-5.62c0.39,0.04,0.77-0.09,1.05-0.35c0.29-0.26,0.45-0.63,0.45-1.01v-33.9
	C57.42,19.27,56.87,18.68,56.16,18.62z M54.67,52.41c-10.41-0.57-17.63,2.75-21.06,4.82V36.86c0-0.76-0.62-1.38-1.38-1.38
	s-1.38,0.62-1.38,1.38v20.37c-3.43-2.06-10.65-5.39-21.06-4.82V21.26c13.52-0.73,21.33,6.48,21.42,6.56c0.28,0.27,0.64,0.39,1,0.37
	c0.37,0.02,0.74-0.09,1.03-0.36c0.08-0.07,7.9-7.29,21.41-6.56V52.41z"/>
<path class="st1" d="M45.1,25.95v6.32c0,0.29,0.13,0.57,0.35,0.76c0.18,0.16,0.41,0.24,0.65,0.24c0.05,0,0.1,0,0.16-0.01l2.28-0.36
	v5.26l-7.98,1.29v-2.41l2.32-0.37c0.49-0.08,0.84-0.5,0.84-0.99v-6.32c0-0.29-0.13-0.57-0.35-0.76c-0.22-0.19-0.51-0.27-0.81-0.23
	l-6.32,1c-0.49,0.08-0.84,0.5-0.84,0.99v6.32c0,0.29,0.13,0.57,0.35,0.76c0.18,0.16,0.41,0.24,0.65,0.24c0.05,0,0.1,0,0.16-0.01
	l2.01-0.32v3.27c0,0.29,0.13,0.57,0.35,0.76c0.18,0.16,0.41,0.24,0.65,0.24c0.05,0,0.11,0,0.16-0.01l4.04-0.65v1.58l-2.32,0.37
	c-0.49,0.08-0.84,0.5-0.84,0.99v6.32c0,0.29,0.13,0.57,0.35,0.76c0.18,0.16,0.41,0.24,0.65,0.24c0.05,0,0.1,0,0.16-0.01l6.33-1
	c0.49-0.08,0.84-0.5,0.84-0.99v-6.32c0-0.29-0.13-0.57-0.35-0.76c-0.22-0.19-0.52-0.28-0.81-0.23l-2.01,0.32v-1.58L49.7,40
	c0.48-0.08,0.84-0.5,0.84-0.99v-6.42l2.05-0.32c0.49-0.08,0.84-0.5,0.84-0.99v-6.32c0-0.29-0.13-0.57-0.35-0.76
	c-0.22-0.19-0.52-0.28-0.81-0.23l-6.32,1C45.46,25.04,45.1,25.46,45.1,25.95z M37.4,31.22l4.32-0.68v4.3l-4.32,0.68V31.22z
	 M46.93,48.36l-4.33,0.68v-4.3l4.33-0.68V48.36z M47.1,26.81l4.32-0.68v4.3l-4.32,0.68V26.81z"/>
<path class="st0" d="M13.47,25.19c-0.41,0.04-0.72,0.4-0.68,0.81s0.4,0.71,0.81,0.68c8.19-0.73,12.95,3.67,13,3.71
	c0.14,0.14,0.33,0.2,0.52,0.2c0.2,0,0.4-0.08,0.54-0.23c0.28-0.3,0.27-0.77-0.03-1.06C27.43,29.11,22.35,24.39,13.47,25.19z"/>
<path class="st0" d="M13.47,32.49c-0.41,0.04-0.72,0.4-0.68,0.81s0.4,0.71,0.81,0.68c8.19-0.72,12.95,3.67,13,3.71
	c0.14,0.14,0.33,0.2,0.51,0.2c0.2,0,0.4-0.08,0.54-0.23c0.28-0.3,0.27-0.77-0.03-1.06C27.43,36.4,22.36,31.69,13.47,32.49z"/>
<path class="st0" d="M13.47,39.06c-0.41,0.04-0.72,0.4-0.68,0.81s0.4,0.71,0.81,0.68c8.19-0.73,12.95,3.67,13,3.71
	c0.14,0.14,0.33,0.2,0.52,0.2c0.2,0,0.4-0.08,0.54-0.23c0.28-0.3,0.27-0.77-0.03-1.06C27.43,42.98,22.35,38.26,13.47,39.06z"/>
<path class="st0" d="M13.47,46.36c-0.41,0.04-0.72,0.4-0.68,0.81s0.4,0.71,0.81,0.68c8.19-0.73,12.95,3.67,13,3.71
	c0.14,0.14,0.33,0.2,0.51,0.2c0.2,0,0.4-0.08,0.54-0.23c0.28-0.3,0.27-0.77-0.03-1.06C27.43,50.28,22.36,45.57,13.47,46.36z"/>
<g>
	<polygon class="st0" points="48.78,8.28 47.03,8.28 47.03,6.53 45.53,6.53 45.53,8.28 43.78,8.28 43.78,9.78 45.53,9.78 
		45.53,11.53 47.03,11.53 47.03,9.78 48.78,9.78 	"/>
	<path class="st0" d="M30.48,14.82c-1.01,1.01-1.01,2.65,0,3.66c0.5,0.5,1.17,0.75,1.83,0.75c0.66,0,1.32-0.25,1.83-0.75
		c1.01-1.01,1.01-2.65,0-3.66C33.12,13.81,31.48,13.81,30.48,14.82z M33.07,17.42c-0.42,0.42-1.11,0.42-1.53,0
		c-0.42-0.42-0.42-1.11,0-1.53c0.21-0.21,0.49-0.32,0.77-0.32s0.55,0.11,0.77,0.32C33.49,16.31,33.49,16.99,33.07,17.42z"/>
	<polygon class="st0" points="16.72,8.66 15.38,9.75 14.29,8.42 13.13,9.36 14.22,10.7 12.88,11.79 13.83,12.95 15.17,11.86 
		16.26,13.2 17.42,12.25 16.33,10.92 17.67,9.82 	"/>
	<polygon class="st0" points="30.42,5.13 29.72,3.8 28.19,4.59 27.39,3.06 26.06,3.75 26.86,5.29 25.33,6.08 26.02,7.41 27.55,6.62 
		28.35,8.15 29.68,7.45 28.88,5.92 	"/>
</g>
</svg>
