<?xml version="1.0" encoding="utf-8"?>
<!-- Generator: Adobe Illustrator 23.0.3, SVG Export Plug-In . SVG Version: 6.00 Build 0)  -->
<svg version="1.1" id="Layer_1" xmlns="http://www.w3.org/2000/svg" xmlns:xlink="http://www.w3.org/1999/xlink" x="0px" y="0px"
	 viewBox="0 0 64 64" style="enable-background:new 0 0 64 64;" xml:space="preserve">
<style type="text/css">
	.st0{fill:#003358;}
	.st1{fill:#57C9E8;}
</style>
<path class="st0" d="M25.84,27l3.6-0.07c0.52-0.01,1-0.32,1.22-0.79c0.22-0.47,0.16-1.03-0.17-1.44l-3.69-4.62l1.71-5.66
	c0.15-0.5,0-1.04-0.38-1.4s-0.93-0.46-1.42-0.28l-5.54,2.08l-4.85-3.38c-0.43-0.3-1-0.33-1.45-0.08c-0.46,0.25-0.73,0.74-0.71,1.27
	l0.27,5.91L9.71,22.1c-0.42,0.32-0.62,0.84-0.52,1.36c0.1,0.51,0.48,0.93,0.99,1.07l5.7,1.57l1.94,5.59
	c0.17,0.49,0.61,0.85,1.13,0.91c0.06,0.01,0.11,0.01,0.17,0.01c0.46,0,0.89-0.23,1.15-0.62l2.21-3.36l26.8,30.86
	c0.36,0.41,0.86,0.62,1.36,0.62c0.42,0,0.84-0.14,1.18-0.44c0.75-0.65,0.83-1.79,0.18-2.54L25.84,27z M21.63,24.93l-2.12,3.22
	l-1.26-3.64c-0.15-0.43-0.5-0.75-0.93-0.88l-3.71-1.02l3.07-2.33c0.36-0.27,0.56-0.71,0.54-1.16l-0.18-3.85l3.16,2.2
	c0.37,0.26,0.85,0.32,1.27,0.16l3.61-1.36l-1.12,3.69c-0.13,0.43-0.04,0.9,0.24,1.26l2.4,3.01l-3.85,0.08
	C22.29,24.32,21.87,24.55,21.63,24.93z"/>
<path class="st1" d="M10.67,29.9l-2.05,1.79l-1.79-2.05c-0.36-0.42-1-0.46-1.41-0.1c-0.42,0.36-0.46,0.99-0.1,1.41L7.11,33
	l-2.05,1.79c-0.42,0.36-0.46,0.99-0.1,1.41c0.2,0.23,0.48,0.34,0.75,0.34c0.23,0,0.47-0.08,0.66-0.25l2.05-1.79l1.79,2.05
	c0.2,0.23,0.48,0.34,0.75,0.34c0.23,0,0.47-0.08,0.66-0.25c0.42-0.36,0.46-0.99,0.1-1.41L9.94,33.2l2.05-1.79
	c0.42-0.36,0.46-0.99,0.1-1.41C11.72,29.58,11.09,29.54,10.67,29.9z"/>
<path class="st1" d="M31.93,19.62l2,0.02l-0.02,2c-0.01,0.55,0.44,1,0.99,1.01c0,0,0.01,0,0.01,0c0.55,0,0.99-0.44,1-0.99l0.02-2
	l2,0.02c0,0,0.01,0,0.01,0c0.55,0,0.99-0.44,1-0.99c0.01-0.55-0.44-1-0.99-1.01l-2-0.02l0.02-2c0.01-0.55-0.44-1-0.99-1.01
	c-0.58,0.02-1,0.44-1.01,0.99l-0.02,2l-2-0.02c0,0-0.01,0-0.01,0c-0.55,0-0.99,0.44-1,0.99C30.93,19.16,31.38,19.61,31.93,19.62z"/>
<path class="st0" d="M34.79,46.2c-5.36,5.63-9.48,9.5-11.81,11.35c1.35-2.72,4.37-7.7,8.95-14.34c0.43-0.62,0.27-1.48-0.35-1.91
	c-0.62-0.43-1.48-0.27-1.91,0.35c-12.08,17.49-10.63,18.66-9.58,19.5c0.26,0.21,0.54,0.44,1.02,0.44c1.48,0,4.88-2.15,15.68-13.5
	c0.52-0.55,0.5-1.42-0.05-1.94C36.18,45.62,35.31,45.65,34.79,46.2z"/>
<path class="st0" d="M35.11,34.38c-0.48,0.59-0.38,1.46,0.21,1.93c0.59,0.48,1.46,0.39,1.93-0.21l2.2-2.74
	c0.72,1.06,1.87,2.25,3.67,2.96l-3,3.72c-0.48,0.59-0.38,1.46,0.21,1.93c0.25,0.21,0.56,0.3,0.86,0.3c0.4,0,0.8-0.17,1.07-0.51
	l4.35-5.39c0.31-0.39,0.39-0.92,0.2-1.38c-0.19-0.46-0.62-0.79-1.12-0.84c-3.67-0.42-4.6-3.55-4.64-3.67
	c-0.13-0.5-0.54-0.88-1.04-0.99c-0.51-0.1-1.03,0.08-1.35,0.48L35.11,34.38z"/>
<path class="st0" d="M59.81,8.89c-1.09-0.36-1.74,0.55-2.17,1.15c-0.44,0.62-1.05,1.46-1.94,2.03c-1.32,0.85-1.96,0.95-2.78,1.09
	c-1.06,0.17-2.27,0.37-4.49,1.94c-4.25,3-4.22,8.4-4.21,8.63c0.01,0.75,0.63,1.35,1.38,1.35c0.01,0,0.01,0,0.02,0
	c0.76-0.01,1.37-0.64,1.35-1.4c0-0.04-0.03-4.17,3.05-6.34c1.7-1.2,2.46-1.33,3.35-1.47c0.95-0.15,2.02-0.33,3.82-1.49
	c0.35-0.22,0.67-0.47,0.95-0.73c-0.01,0.37-0.02,0.76-0.03,1.17l-0.04,1.59c-0.08,3.35-0.86,5.75-2.28,6.94
	c-1.24,1.04-2.59,0.87-2.68,0.86c-0.75-0.12-1.45,0.38-1.58,1.12c-0.13,0.75,0.37,1.46,1.12,1.59c0.03,0.01,0.31,0.05,0.74,0.05
	c0.93,0,2.58-0.21,4.11-1.47c2.11-1.73,3.22-4.77,3.32-9.04l0.04-1.59C60.98,9.82,61,9.29,59.81,8.89z"/>
<path class="st0" d="M48.17,33.07c0.1,0.02,0.2,0.03,0.29,0.03c0.63,0,1.2-0.44,1.34-1.08c0.16-0.74-0.31-1.47-1.05-1.64
	c-3.6-0.79-5.25-4.2-5.27-4.25c-0.32-0.69-1.13-0.99-1.82-0.67c-0.69,0.32-1,1.13-0.68,1.82C41.07,27.47,43.18,31.98,48.17,33.07z"
	/>
<path class="st1" d="M5.58,16.2c0.01,0.55,0.45,0.99,1,0.99c0,0,0.01,0,0.01,0c0.55-0.01,0.99-0.46,0.99-1.01l-0.02-2l2-0.02
	c0.55-0.01,0.99-0.46,0.99-1.01c-0.01-0.55-0.45-0.99-1-0.99c0,0-0.01,0-0.01,0l-2,0.02l-0.02-2c-0.01-0.55-0.45-0.99-1-0.99
	c0,0-0.01,0-0.01,0C5.94,9.2,5.5,9.65,5.51,10.2l0.02,2l-2,0.02c-0.55,0.01-1,0.46-0.99,1.01c0.01,0.55,0.45,0.99,1,0.99
	c0,0,0.01,0,0.01,0l2-0.02L5.58,16.2z"/>
<path class="st0" d="M21.99,8.5c1.43,0,2.58-1.16,2.58-2.58s-1.16-2.58-2.58-2.58c-1.42,0-2.58,1.16-2.58,2.58S20.57,8.5,21.99,8.5z
	 M21.99,4.83c0.6,0,1.08,0.49,1.08,1.08S22.59,7,21.99,7c-0.6,0-1.08-0.49-1.08-1.08S21.39,4.83,21.99,4.83z"/>
<path class="st0" d="M55.16,48.85c1.43,0,2.58-1.16,2.58-2.58c0-1.43-1.16-2.58-2.58-2.58c-1.42,0-2.58,1.16-2.58,2.58
	C52.57,47.69,53.73,48.85,55.16,48.85z M55.16,45.18c0.6,0,1.08,0.49,1.08,1.08c0,0.6-0.49,1.08-1.08,1.08
	c-0.6,0-1.08-0.49-1.08-1.08C54.07,45.66,54.56,45.18,55.16,45.18z"/>
<polygon class="st0" points="13.56,52.63 12.03,53.43 11.23,51.9 9.9,52.59 10.7,54.12 9.17,54.92 9.86,56.25 11.39,55.45 
	12.19,56.98 13.52,56.29 12.72,54.76 14.25,53.96 "/>
</svg>
