<?xml version="1.0" encoding="utf-8"?>
<!-- Generator: Adobe Illustrator 23.0.3, SVG Export Plug-In . SVG Version: 6.00 Build 0)  -->
<svg version="1.1" id="Layer_1" xmlns="http://www.w3.org/2000/svg" xmlns:xlink="http://www.w3.org/1999/xlink" x="0px" y="0px"
	 viewBox="0 0 64 64" style="enable-background:new 0 0 64 64;" xml:space="preserve">
<style type="text/css">
	.st0{fill:#ED674D;}
	.st1{fill:#003358;}
</style>
<path class="st0" d="M21.49,15.38c0.73,0.16,1.44-0.29,1.62-1l7.17,1.56c-0.09,0.7,0.37,1.37,1.07,1.52c0.1,0.02,0.2,0.03,0.29,0.03
	c0.63,0,1.2-0.44,1.34-1.08l0.56-2.57l-12.53-2.72l-0.57,2.64C20.28,14.49,20.75,15.22,21.49,15.38z"/>
<path class="st1" d="M22.49,42.76c-0.54-0.1-1.06,0.27-1.16,0.81s0.27,1.06,0.81,1.16c0.63,0.11,1.18,0.46,1.55,0.99
	c0.37,0.53,0.51,1.17,0.4,1.79l-0.37,2.08c-0.1,0.54,0.27,1.06,0.81,1.16c0.06,0.01,0.12,0.02,0.17,0.02c0.48,0,0.9-0.34,0.98-0.83
	l0.37-2.08c0.21-1.15-0.05-2.32-0.73-3.29C24.66,43.61,23.65,42.97,22.49,42.76z"/>
<path class="st1" d="M58.25,26.59l-20.74-0.6c-1.15-0.05-2.24,0.38-3.08,1.18c-0.84,0.79-1.32,1.86-1.35,3.01
	c-0.05,1.87,1.1,3.49,2.76,4.13l0.72,13.11c-2.42,0.58-4.37,1.46-5.8,2.27l0.04-0.21c0.47-2.67-0.13-5.37-1.69-7.6
	c-1.29-1.85-3.12-3.18-5.22-3.85l2.5-14.11c2.1-0.08,4.07-1.19,5.21-3.03c0.4-0.65,0.2-1.49-0.45-1.89c-0.65-0.4-1.49-0.2-1.89,0.45
	c-0.82,1.32-2.38,1.99-3.9,1.66c-1.57-0.34-2.75-1.7-2.87-3.31c-0.06-0.76-0.73-1.33-1.48-1.27c-0.76,0.06-1.32,0.72-1.27,1.48
	c0.19,2.42,1.75,4.51,3.93,5.43l-2.5,14.12c-5-0.19-9.53,3.32-10.42,8.39l-0.95,5.38c-0.02,0.13-0.02,0.26-0.01,0.38
	c-4.44,1.22-6.99,3.34-7.04,3.39c-0.58,0.5-0.64,1.36-0.15,1.94c0.49,0.58,1.36,0.64,1.94,0.15c0.11-0.09,11.18-9.32,27.89,2.26
	c0.24,0.17,0.51,0.25,0.78,0.25c0.44,0,0.86-0.21,1.13-0.59c0.43-0.62,0.28-1.48-0.35-1.91c-1.41-0.98-2.78-1.8-4.12-2.52l0.22-1.25
	c1.82-1.51,11.85-8.71,27.68,1.13c0.23,0.14,0.48,0.21,0.73,0.21c0.46,0,0.91-0.23,1.17-0.65c0.4-0.64,0.2-1.49-0.44-1.89
	c-0.8-0.49-1.57-0.94-2.34-1.35l0.68-4.5l1.65,1.1c0.17,0.11,0.36,0.17,0.55,0.17c0.32,0,0.64-0.16,0.83-0.45
	c0.31-0.46,0.18-1.08-0.28-1.39l-2.43-1.62l1.52-10.05c0.02-0.14,0.01-0.29-0.01-0.43c-0.01-0.05-0.01-0.1-0.03-0.15c0,0,0,0,0,0
	c-0.14-0.59-0.66-1.05-1.3-1.06l-20.74-0.6c-0.86-0.03-1.54-0.75-1.52-1.61c0.01-0.41,0.19-0.8,0.49-1.09
	c0.3-0.29,0.68-0.42,1.12-0.43l20.74,0.6c0.86,0.03,1.54,0.75,1.52,1.61c-0.02,0.76,0.58,1.39,1.33,1.41
	c0.78,0.06,1.39-0.58,1.41-1.33C62.5,28.65,60.62,26.66,58.25,26.59z M28.08,49l-0.77,4.38c-5.75-2.53-10.73-2.84-14.68-2.27
	l0.83-4.69c0.71-4.03,4.57-6.74,8.61-6.02c1.94,0.34,3.64,1.43,4.78,3.06C27.98,45.09,28.42,47.06,28.08,49z M56.46,35.23l-1.1,7.25
	l-3.03-2.02c0.06-0.32,0.07-0.66,0-1c-0.13-0.68-0.51-1.27-1.09-1.66s-1.26-0.54-1.94-0.41c-0.68,0.13-1.27,0.51-1.66,1.09
	c-0.31,0.46-0.19,1.08,0.26,1.39s1.08,0.19,1.39-0.26c0.09-0.13,0.22-0.22,0.38-0.25c0.16-0.03,0.31,0,0.44,0.09
	c0.13,0.09,0.22,0.22,0.25,0.38s0,0.31-0.09,0.44c-0.15,0.22-0.21,0.49-0.16,0.75s0.21,0.49,0.43,0.64l4.49,2.98l-0.74,4.89
	c-5.87-2.64-10.93-3.11-15.01-2.62l-0.67-12.19L56.46,35.23z"/>
<polygon class="st1" points="12.76,25.49 11.23,26.29 10.43,24.76 9.1,25.45 9.9,26.98 8.37,27.78 9.06,29.11 10.59,28.31 
	11.39,29.85 12.72,29.15 11.92,27.62 13.45,26.82 "/>
<path class="st1" d="M10.91,9.5c1.43,0,2.58-1.16,2.58-2.58s-1.16-2.58-2.58-2.58c-1.42,0-2.58,1.16-2.58,2.58S9.48,9.5,10.91,9.5z
	 M10.91,5.83c0.6,0,1.08,0.49,1.08,1.08S11.51,8,10.91,8c-0.6,0-1.08-0.49-1.08-1.08S10.31,5.83,10.91,5.83z"/>
<path class="st1" d="M43.87,20.77c1.43,0,2.58-1.16,2.58-2.58c0-1.43-1.16-2.58-2.58-2.58c-1.42,0-2.58,1.16-2.58,2.58
	C41.28,19.62,42.44,20.77,43.87,20.77z M43.87,17.11c0.6,0,1.08,0.49,1.08,1.08c0,0.6-0.49,1.08-1.08,1.08
	c-0.6,0-1.08-0.49-1.08-1.08C42.78,17.59,43.27,17.11,43.87,17.11z"/>
<polygon class="st1" points="54.51,10.82 56.01,10.82 56.01,9.07 57.76,9.07 57.76,7.57 56.01,7.57 56.01,5.82 54.51,5.82 
	54.51,7.57 52.76,7.57 52.76,9.07 54.51,9.07 "/>
</svg>
